<svg width="559" height="73" viewBox="0 0 559 73" fill="none" xmlns="http://www.w3.org/2000/svg">

<g filter="url(#filter0_d)">
<path d="M19.7065 34.9434L20.3351 34.5342L19.7963 33.7064L19.1436 34.4478L19.7065 34.9434ZM12.9829 42.5801L12.42 42.0845L12.2329 42.297V42.5801H12.9829ZM12.9829 63V63.75H13.7329V63H12.9829ZM5.13867 63H4.38867V63.75H5.13867V63ZM5.13867 2.57031V1.82031H4.38867V2.57031H5.13867ZM12.9829 2.57031H13.7329V1.82031H12.9829V2.57031ZM12.9829 32.0796H12.2329V34.2153L13.5682 32.5485L12.9829 32.0796ZM18.835 24.7749L19.4203 25.2438L19.4211 25.2428L18.835 24.7749ZM36.5571 2.57031V1.82031H36.1961L35.9709 2.10246L36.5571 2.57031ZM45.8955 2.57031L46.4814 3.0385L47.4548 1.82031H45.8955V2.57031ZM24.77 29.0083L24.1841 28.5401L23.8429 28.9672L24.1449 29.4227L24.77 29.0083ZM47.3066 63V63.75H48.7038L47.9317 62.5856L47.3066 63ZM37.9683 63L37.3397 63.4091L37.5615 63.75H37.9683V63ZM19.1436 34.4478L12.42 42.0845L13.5458 43.0757L20.2695 35.439L19.1436 34.4478ZM12.2329 42.5801V63H13.7329V42.5801H12.2329ZM12.9829 62.25H5.13867V63.75H12.9829V62.25ZM5.88867 63V2.57031H4.38867V63H5.88867ZM5.13867 3.32031H12.9829V1.82031H5.13867V3.32031ZM12.2329 2.57031V32.0796H13.7329V2.57031H12.2329ZM13.5682 32.5485L19.4203 25.2438L18.2496 24.306L12.3976 31.6107L13.5682 32.5485ZM19.4211 25.2428L37.1433 3.03817L35.9709 2.10246L18.2488 24.307L19.4211 25.2428ZM36.5571 3.32031H45.8955V1.82031H36.5571V3.32031ZM45.3096 2.10213L24.1841 28.5401L25.3559 29.4765L46.4814 3.0385L45.3096 2.10213ZM24.1449 29.4227L46.6815 63.4144L47.9317 62.5856L25.3951 28.5939L24.1449 29.4227ZM47.3066 62.25H37.9683V63.75H47.3066V62.25ZM38.5968 62.5909L20.3351 34.5342L19.078 35.3525L37.3397 63.4091L38.5968 62.5909ZM85.1167 47.353L85.8341 47.1342L85.672 46.603H85.1167V47.353ZM64.9458 47.353V46.603H64.3933L64.2295 47.1307L64.9458 47.353ZM60.0898 63V63.75H60.6424L60.8061 63.2223L60.0898 63ZM52.4116 63L51.6979 62.7696L51.3814 63.75H52.4116V63ZM71.9185 2.57031V1.82031H71.3725L71.2047 2.33992L71.9185 2.57031ZM78.3516 2.57031L79.0664 2.34348L78.9004 1.82031H78.3516V2.57031ZM97.5264 63V63.75H98.5512L98.2412 62.7732L97.5264 63ZM89.8896 63L89.1723 63.2188L89.3343 63.75H89.8896V63ZM67.021 40.6709L66.3043 40.4498L66.0047 41.4209H67.021V40.6709ZM83.083 40.6709V41.4209H84.0947L83.8006 40.4529L83.083 40.6709ZM75.1143 14.4404L75.8319 14.2224L75.1198 11.8786L74.3976 14.2193L75.1143 14.4404ZM85.1167 46.603H64.9458V48.103H85.1167V46.603ZM64.2295 47.1307L59.3735 62.7777L60.8061 63.2223L65.6621 47.5753L64.2295 47.1307ZM60.0898 62.25H52.4116V63.75H60.0898V62.25ZM53.1254 63.2304L72.6322 2.80071L71.2047 2.33992L51.6979 62.7696L53.1254 63.2304ZM71.9185 3.32031H78.3516V1.82031H71.9185V3.32031ZM77.6367 2.79715L96.8115 63.2268L98.2412 62.7732L79.0664 2.34348L77.6367 2.79715ZM97.5264 62.25H89.8896V63.75H97.5264V62.25ZM90.607 62.7812L85.8341 47.1342L84.3993 47.5719L89.1723 63.2188L90.607 62.7812ZM67.021 41.4209H83.083V39.9209H67.021V41.4209ZM83.8006 40.4529L75.8319 14.2224L74.3966 14.6584L82.3654 40.8889L83.8006 40.4529ZM74.3976 14.2193L66.3043 40.4498L67.7377 40.892L75.8309 14.6616L74.3976 14.2193ZM127.326 38.3467L128.002 38.0213L127.797 37.5967H127.326V38.3467ZM115.249 38.3467V37.5967H114.499V38.3467H115.249ZM115.249 63V63.75H115.999V63H115.249ZM107.612 63H106.862V63.75H107.612V63ZM107.612 2.57031V1.82031H106.862V2.57031H107.612ZM125.334 2.57031L125.349 1.82046L125.341 1.82031H125.334V2.57031ZM139.819 7.13574L139.348 7.7197L139.352 7.72308L139.819 7.13574ZM144.218 12.7803L143.538 13.0957L143.543 13.1056L144.218 12.7803ZM144.965 26.103L144.259 25.8515L144.255 25.8622L144.965 26.103ZM134.506 36.6865L134.208 35.9984L133.483 36.3125L133.835 37.0202L134.506 36.6865ZM147.331 62.502L148.078 62.5642L148.096 62.3557L148.003 62.1683L147.331 62.502ZM147.29 63V63.75H147.98L148.037 63.0623L147.29 63ZM139.196 63L138.521 63.3254L138.725 63.75H139.196V63ZM115.249 32.0381H114.499V32.7881H115.249V32.0381ZM125.542 32.0381V32.7882L125.554 32.788L125.542 32.0381ZM130.397 31.2495L130.631 31.9624L130.642 31.9584L130.397 31.2495ZM134.382 29.0083L133.902 28.4321L133.895 28.4379L134.382 29.0083ZM137.121 25.4805L137.797 25.805L137.8 25.7998L137.121 25.4805ZM137.163 15.561L136.475 15.8596L136.477 15.8644L137.163 15.561ZM134.506 11.9087L134.011 12.4723L134.019 12.4791L134.506 11.9087ZM130.439 9.66748L130.209 10.3815L130.213 10.3827L130.439 9.66748ZM125.334 8.87891L125.345 8.12891H125.334V8.87891ZM115.249 8.87891V8.12891H114.499V8.87891H115.249ZM127.326 37.5967H115.249V39.0967H127.326V37.5967ZM114.499 38.3467V63H115.999V38.3467H114.499ZM115.249 62.25H107.612V63.75H115.249V62.25ZM108.362 63V2.57031H106.862V63H108.362ZM107.612 3.32031H125.334V1.82031H107.612V3.32031ZM125.319 3.32017C128.079 3.37429 130.668 3.76638 133.087 4.4923L133.518 3.05556C130.957 2.28733 128.233 1.87702 125.349 1.82046L125.319 3.32017ZM133.087 4.4923C135.493 5.21406 137.577 6.29182 139.348 7.71969L140.289 6.5518C138.353 4.99138 136.093 3.82793 133.518 3.05556L133.087 4.4923ZM139.352 7.72308C141.139 9.14148 142.533 10.9284 143.538 13.0956L144.899 12.4649C143.8 10.0944 142.262 8.11828 140.285 6.54841L139.352 7.72308ZM143.543 13.1056C144.563 15.2252 145.087 17.7518 145.087 20.7075H146.587C146.587 17.576 146.032 14.8178 144.894 12.4549L143.543 13.1056ZM145.087 20.7075C145.087 22.5977 144.808 24.3098 144.259 25.8515L145.672 26.3545C146.285 24.6313 146.587 22.7464 146.587 20.7075H145.087ZM144.255 25.8622C143.726 27.4225 142.988 28.8317 142.041 30.0939L143.241 30.9939C144.287 29.5999 145.098 28.0485 145.676 26.3438L144.255 25.8622ZM142.041 30.0939C141.09 31.3618 139.953 32.4868 138.626 33.4689L139.518 34.6747C140.958 33.6093 142.2 32.3823 143.241 30.9939L142.041 30.0939ZM138.626 33.4689C137.29 34.457 135.819 35.3005 134.208 35.9984L134.805 37.3747C136.514 36.6337 138.086 35.7341 139.518 34.6747L138.626 33.4689ZM133.835 37.0202L146.659 62.8356L148.003 62.1683L135.178 36.3528L133.835 37.0202ZM146.584 62.4397L146.542 62.9377L148.037 63.0623L148.078 62.5642L146.584 62.4397ZM147.29 62.25H139.196V63.75H147.29V62.25ZM139.872 62.6746L128.002 38.0213L126.65 38.672L138.521 63.3254L139.872 62.6746ZM115.249 32.7881H125.542V31.2881H115.249V32.7881ZM125.554 32.788C127.339 32.7592 129.033 32.4854 130.631 31.9623L130.164 30.5367C128.719 31.0098 127.175 31.2616 125.529 31.2882L125.554 32.788ZM130.642 31.9584C132.246 31.4045 133.658 30.6127 134.869 29.5787L133.895 28.4379C132.837 29.3407 131.593 30.0431 130.153 30.5406L130.642 31.9584ZM134.862 29.5845C136.108 28.5462 137.087 27.284 137.797 25.805L136.445 25.1559C135.827 26.4439 134.98 27.5336 133.902 28.4321L134.862 29.5845ZM137.8 25.7998C138.518 24.2731 138.867 22.5423 138.867 20.6245H137.367C137.367 22.359 137.052 23.8656 136.442 25.1611L137.8 25.7998ZM138.867 20.6245C138.867 18.6067 138.536 16.8114 137.848 15.2577L136.477 15.8644C137.062 17.1883 137.367 18.7686 137.367 20.6245H138.867ZM137.851 15.2625C137.172 13.6989 136.221 12.3861 134.993 11.3383L134.019 12.4791C135.061 13.3682 135.88 14.4902 136.475 15.8596L137.851 15.2625ZM135.001 11.3451C133.781 10.2741 132.332 9.47865 130.665 8.95229L130.213 10.3827C131.701 10.8524 132.962 11.5511 134.011 12.4723L135.001 11.3451ZM130.668 8.95346C129.039 8.42982 127.263 8.15761 125.345 8.12899L125.323 9.62882C127.113 9.65554 128.74 9.90905 130.209 10.3815L130.668 8.95346ZM125.334 8.12891H115.249V9.62891H125.334V8.12891ZM114.499 8.87891V32.0381H115.999V8.87891H114.499ZM187.216 47.353L187.934 47.1342L187.772 46.603H187.216V47.353ZM167.045 47.353V46.603H166.493L166.329 47.1307L167.045 47.353ZM162.189 63V63.75H162.742L162.906 63.2223L162.189 63ZM154.511 63L153.797 62.7696L153.481 63.75H154.511V63ZM174.018 2.57031V1.82031H173.472L173.304 2.33992L174.018 2.57031ZM180.451 2.57031L181.166 2.34348L181 1.82031H180.451V2.57031ZM199.626 63V63.75H200.651L200.341 62.7732L199.626 63ZM191.989 63L191.272 63.2188L191.434 63.75H191.989V63ZM169.121 40.6709L168.404 40.4498L168.104 41.4209H169.121V40.6709ZM185.183 40.6709V41.4209H186.194L185.9 40.4529L185.183 40.6709ZM177.214 14.4404L177.931 14.2224L177.219 11.8786L176.497 14.2193L177.214 14.4404ZM187.216 46.603H167.045V48.103H187.216V46.603ZM166.329 47.1307L161.473 62.7777L162.906 63.2223L167.762 47.5753L166.329 47.1307ZM162.189 62.25H154.511V63.75H162.189V62.25ZM155.225 63.2304L174.732 2.80071L173.304 2.33992L153.797 62.7696L155.225 63.2304ZM174.018 3.32031H180.451V1.82031H174.018V3.32031ZM179.736 2.79715L198.911 63.2268L200.341 62.7732L181.166 2.34348L179.736 2.79715ZM199.626 62.25H191.989V63.75H199.626V62.25ZM192.707 62.7812L187.934 47.1342L186.499 47.5719L191.272 63.2188L192.707 62.7812ZM169.121 41.4209H185.183V39.9209H169.121V41.4209ZM185.9 40.4529L177.931 14.2224L176.496 14.6584L184.465 40.8889L185.9 40.4529ZM176.497 14.2193L168.404 40.4498L169.837 40.892L177.931 14.6616L176.497 14.2193ZM247.272 63V63.75H248.022V63H247.272ZM239.47 63L238.804 63.3456L239.014 63.75H239.47V63ZM216.02 17.8438L216.686 17.4981L215.27 17.8417L216.02 17.8438ZM215.896 63V63.75H216.643L216.646 63.0021L215.896 63ZM208.134 63H207.384V63.75H208.134V63ZM208.134 2.57031V1.82031H207.384V2.57031H208.134ZM215.937 2.57031L216.602 2.22416L216.392 1.82031H215.937V2.57031ZM239.387 47.6436L238.721 47.9897L240.137 47.6456L239.387 47.6436ZM239.511 2.57031V1.82031H238.763L238.761 2.56824L239.511 2.57031ZM247.272 2.57031H248.022V1.82031H247.272V2.57031ZM247.272 62.25H239.47V63.75H247.272V62.25ZM240.135 62.6544L216.686 17.4981L215.354 18.1894L238.804 63.3456L240.135 62.6544ZM215.27 17.8417L215.146 62.9979L216.646 63.0021L216.77 17.8458L215.27 17.8417ZM215.896 62.25H208.134V63.75H215.896V62.25ZM208.884 63V2.57031H207.384V63H208.884ZM208.134 3.32031H215.937V1.82031H208.134V3.32031ZM215.272 2.91646L238.721 47.9897L240.052 47.2974L216.602 2.22416L215.272 2.91646ZM240.137 47.6456L240.261 2.57238L238.761 2.56824L238.637 47.6415L240.137 47.6456ZM239.511 3.32031H247.272V1.82031H239.511V3.32031ZM246.522 2.57031V63H248.022V2.57031H246.522ZM341.86 43.0366L341.232 43.4464L341.238 43.4558L341.86 43.0366ZM338.623 39.8408L338.206 40.4649L338.216 40.4708L338.623 39.8408ZM334.223 37.6411L333.964 38.3449L333.968 38.3463L334.223 37.6411ZM329.658 36.064L329.426 36.7773L329.429 36.7781L329.658 36.064ZM323.142 33.5737L322.838 34.2595L322.841 34.2608L323.142 33.5737ZM317.124 30.0044L316.661 30.5945L316.665 30.5979L317.124 30.0044ZM312.683 25.0239L312.035 25.403L312.042 25.4139L312.683 25.0239ZM312.683 11.2446L312.03 10.8744L312.027 10.8811L312.683 11.2446ZM323.515 2.86084L323.735 3.57808L323.742 3.57564L323.515 2.86084ZM338.208 3.06836L337.951 3.77324L337.958 3.77575L338.208 3.06836ZM350.991 19.9604V20.7104H351.756L351.741 19.9455L350.991 19.9604ZM343.105 19.9604L342.361 20.0549L342.444 20.7104H343.105V19.9604ZM341.818 15.229L341.132 15.5324L341.135 15.5373L341.818 15.229ZM335.51 9.16943L335.229 9.86486L335.237 9.86809L335.245 9.87113L335.51 9.16943ZM326.296 8.92041L326.084 8.20088L326.08 8.20204L326.296 8.92041ZM322.561 10.7881L322.111 10.188L322.103 10.1936L322.561 10.7881ZM319.946 13.8594L319.287 13.5002L319.281 13.5119L319.946 13.8594ZM318.991 18.0928H318.241L318.241 18.1047L318.991 18.0928ZM320.319 22.5337L319.706 22.9657L319.711 22.9723L320.319 22.5337ZM323.557 25.5635L323.153 26.1957L323.159 26.1995L323.557 25.5635ZM327.832 27.6387L327.575 28.3435L327.579 28.345L327.832 27.6387ZM332.189 29.0913L332.415 28.3759L332.409 28.3742L332.189 29.0913ZM336.713 30.71L336.435 31.4064L336.446 31.4106L336.713 30.71ZM348.251 38.6787L347.647 39.1223L347.651 39.1287L348.251 38.6787ZM350.368 42.7461L349.657 42.9833L349.659 42.9913L349.662 42.9992L350.368 42.7461ZM349.331 54.7407L348.688 54.3535L348.684 54.3601L349.331 54.7407ZM344.682 59.8042L345.11 60.4199L345.116 60.4157L344.682 59.8042ZM338.208 62.834L338.407 63.557L338.415 63.5548L338.208 62.834ZM316.169 59.0156L315.707 59.6068L315.716 59.6137L316.169 59.0156ZM311.23 53.2881L310.576 53.655L310.578 53.6585L311.23 53.2881ZM309.196 45.5684V44.8184H308.424L308.447 45.59L309.196 45.5684ZM317.041 45.5684L317.784 45.47L317.698 44.8184H317.041V45.5684ZM318.576 50.5903L317.913 50.9407L317.916 50.9459L318.576 50.5903ZM321.564 54.2842L321.082 54.8583L321.09 54.8646L321.564 54.2842ZM325.756 56.5669L325.519 57.2784L325.527 57.2809L325.534 57.2832L325.756 56.5669ZM335.385 56.7744L335.567 57.5021L335.577 57.4995L335.385 56.7744ZM339.287 55.0312L339.71 55.6507L339.72 55.6436L339.287 55.0312ZM342.067 52.043L342.709 52.4311L342.713 52.4245L342.067 52.043ZM343.896 47.7266C343.896 45.7548 343.439 44.0379 342.482 42.6175L341.238 43.4558C341.996 44.5809 342.396 45.9906 342.396 47.7266H343.896ZM342.488 42.6269C341.598 41.2624 340.442 40.1233 339.029 39.2108L338.216 40.4708C339.459 41.2739 340.461 42.2653 341.232 43.4463L342.488 42.6269ZM339.039 39.2168C337.657 38.2957 336.136 37.5361 334.478 36.9359L333.968 38.3463C335.52 38.9083 336.932 39.6151 338.207 40.4649L339.039 39.2168ZM334.482 36.9374C332.896 36.3529 331.364 35.8237 329.887 35.3498L329.429 36.7781C330.884 37.245 332.396 37.7672 333.964 38.3449L334.482 36.9374ZM329.889 35.3506C327.784 34.6671 325.635 33.8459 323.442 32.8866L322.841 34.2608C325.075 35.2384 327.27 36.0774 329.426 36.7773L329.889 35.3506ZM323.445 32.888C321.313 31.9431 319.359 30.7839 317.582 29.4109L316.665 30.5979C318.541 32.0472 320.599 33.2675 322.838 34.2594L323.445 32.888ZM317.587 29.4143C315.857 28.0574 314.438 26.4646 313.323 24.634L312.042 25.4139C313.252 27.4016 314.793 29.1291 316.661 30.5944L317.587 29.4143ZM313.33 24.6449C312.273 22.8402 311.731 20.7064 311.731 18.2173H310.231C310.231 20.93 310.824 23.334 312.035 25.403L313.33 24.6449ZM311.731 18.2173C311.731 15.7291 312.272 13.5324 313.339 11.6081L312.027 10.8811C310.824 13.0519 310.231 15.5036 310.231 18.2173H311.731ZM313.335 11.6148C314.448 9.65448 315.888 8.00252 317.661 6.65342L316.752 5.45986C314.817 6.93303 313.242 8.73973 312.03 10.8744L313.335 11.6148ZM317.661 6.65342C319.44 5.29893 321.463 4.27296 323.735 3.57804L323.296 2.14364C320.864 2.88752 318.681 3.99208 316.752 5.45986L317.661 6.65342ZM323.742 3.57564C326.023 2.85103 328.313 2.49023 330.612 2.49023V0.990234C328.153 0.990234 325.711 1.37651 323.288 2.14604L323.742 3.57564ZM330.612 2.49023C333.155 2.49023 335.6 2.9181 337.951 3.7732L338.464 2.36351C335.946 1.44778 333.327 0.990234 330.612 0.990234V2.49023ZM337.958 3.77575C340.313 4.60516 342.391 5.77907 344.2 7.29548L345.164 6.14593C343.21 4.50804 340.972 3.24705 338.457 2.36097L337.958 3.77575ZM344.2 7.29548C346.002 8.8059 347.447 10.6341 348.537 12.787L349.875 12.1095C348.696 9.77992 347.125 7.78981 345.164 6.14593L344.2 7.29548ZM348.537 12.787C349.615 14.9178 350.188 17.3095 350.241 19.9754L351.741 19.9455C351.683 17.0775 351.066 14.4611 349.875 12.1095L348.537 12.787ZM350.991 19.2104H343.105V20.7104H350.991V19.2104ZM343.849 19.866C343.62 18.0587 343.173 16.4082 342.502 14.9207L341.135 15.5373C341.737 16.8721 342.148 18.3758 342.361 20.0549L343.849 19.866ZM342.504 14.9256C341.832 13.4055 340.935 12.0931 339.81 10.9978L338.763 12.0725C339.741 13.0247 340.532 14.1749 341.132 15.5324L342.504 14.9256ZM339.81 10.9978C338.68 9.89725 337.331 9.05503 335.775 8.46773L335.245 9.87113C336.622 10.3906 337.791 11.1255 338.763 12.0725L339.81 10.9978ZM335.791 8.474C334.248 7.85113 332.518 7.54785 330.612 7.54785V9.04785C332.359 9.04785 333.894 9.32563 335.229 9.86486L335.791 8.474ZM330.612 7.54785C329.074 7.54785 327.564 7.7657 326.084 8.20089L326.508 9.63993C327.85 9.24505 329.218 9.04785 330.612 9.04785V7.54785ZM326.08 8.20204C324.616 8.6413 323.291 9.30275 322.111 10.1881L323.011 11.3881C324.044 10.6133 325.209 10.0296 326.511 9.63878L326.08 8.20204ZM322.103 10.1936C320.94 11.0885 320 12.193 319.287 13.5002L320.604 14.2185C321.219 13.0909 322.023 12.1478 323.018 11.3826L322.103 10.1936ZM319.281 13.5119C318.58 14.8533 318.241 16.3873 318.241 18.0928H319.741C319.741 16.5886 320.039 15.3003 320.61 14.2068L319.281 13.5119ZM318.241 18.1047C318.271 19.9721 318.748 21.6052 319.706 22.9657L320.932 22.1017C320.175 21.0273 319.767 19.6998 319.741 18.0809L318.241 18.1047ZM319.711 22.9723C320.627 24.2429 321.777 25.3173 323.153 26.1957L323.96 24.9313C322.735 24.1495 321.727 23.204 320.928 22.0951L319.711 22.9723ZM323.159 26.1995C324.533 27.0583 326.006 27.7728 327.575 28.3435L328.088 26.9338C326.614 26.3978 325.236 25.7288 323.954 24.9275L323.159 26.1995ZM327.579 28.345C329.138 28.9016 330.602 29.3896 331.97 29.8085L332.409 28.3742C331.066 27.963 329.624 27.4825 328.084 26.9324L327.579 28.345ZM331.964 29.8067C333.44 30.2711 334.93 30.8043 336.435 31.4063L336.992 30.0136C335.453 29.3982 333.928 28.8522 332.415 28.3759L331.964 29.8067ZM336.446 31.4106C337.936 31.9796 339.371 32.6431 340.752 33.4011L341.474 32.0862C340.032 31.2948 338.534 30.6025 336.981 30.0093L336.446 31.4106ZM340.752 33.4011C342.127 34.1561 343.406 35.0043 344.589 35.9453L345.523 34.7714C344.271 33.7757 342.921 32.8807 341.474 32.0862L340.752 33.4011ZM344.589 35.9453C345.754 36.8726 346.773 37.9312 347.647 39.1222L348.856 38.2352C347.903 36.9359 346.792 35.781 345.523 34.7714L344.589 35.9453ZM347.651 39.1287C348.515 40.2794 349.183 41.5629 349.657 42.9833L351.08 42.5089C350.557 40.941 349.815 39.5129 348.851 38.2287L347.651 39.1287ZM349.662 42.9992C350.155 44.373 350.407 45.9182 350.407 47.6436H351.907C351.907 45.7719 351.633 44.0522 351.074 42.493L349.662 42.9992ZM350.407 47.6436C350.407 50.2395 349.825 52.4672 348.688 54.3536L349.973 55.1279C351.271 52.9746 351.907 50.4708 351.907 47.6436H350.407ZM348.684 54.3601C347.548 56.289 346.071 57.8981 344.248 59.1927L345.116 60.4157C347.112 58.9987 348.733 57.2321 349.977 55.1214L348.684 54.3601ZM344.254 59.1885C342.417 60.4662 340.335 61.4424 338 62.1132L338.415 63.5548C340.895 62.8421 343.129 61.7984 345.11 60.4199L344.254 59.1885ZM338.008 62.111C335.663 62.7578 333.323 63.0801 330.986 63.0801V64.5801C333.463 64.5801 335.937 64.2383 338.407 63.557L338.008 62.111ZM330.986 63.0801C328.381 63.0801 325.83 62.6774 323.33 61.8712L322.87 63.2987C325.517 64.1526 328.223 64.5801 330.986 64.5801V63.0801ZM323.33 61.8712C320.833 61.0656 318.598 59.9136 316.622 58.4176L315.716 59.6137C317.834 61.2166 320.221 62.4442 322.87 63.2987L323.33 61.8712ZM316.631 58.4245C314.688 56.9081 313.107 55.0741 311.882 52.9177L310.578 53.6585C311.899 55.9845 313.61 57.9689 315.707 59.6068L316.631 58.4245ZM311.884 52.9211C310.677 50.7689 310.026 48.3163 309.946 45.5467L308.447 45.59C308.533 48.5756 309.238 51.2696 310.576 53.655L311.884 52.9211ZM309.196 46.3184H317.041V44.8184H309.196V46.3184ZM316.297 45.6668C316.556 47.6238 317.091 49.3852 317.913 50.9407L319.239 50.24C318.512 48.8625 318.023 47.2759 317.784 45.47L316.297 45.6668ZM317.916 50.9459C318.734 52.4658 319.79 53.7718 321.082 54.8582L322.047 53.7102C320.904 52.749 319.968 51.5925 319.237 50.2348L317.916 50.9459ZM321.09 54.8646C322.382 55.9218 323.86 56.7255 325.519 57.2784L325.994 55.8554C324.498 55.3569 323.182 54.6388 322.039 53.7037L321.09 54.8646ZM325.534 57.2832C327.219 57.8061 329.038 58.064 330.986 58.064V56.564C329.171 56.564 327.503 56.3238 325.979 55.8506L325.534 57.2832ZM330.986 58.064C332.541 58.064 334.068 57.8767 335.567 57.502L335.203 56.0468C333.824 56.3915 332.419 56.564 330.986 56.564V58.064ZM335.577 57.4995C337.117 57.0926 338.498 56.4783 339.71 55.6506L338.864 54.4119C337.807 55.1337 336.586 55.6815 335.194 56.0493L335.577 57.4995ZM339.72 55.6436C340.938 54.7815 341.936 53.7091 342.709 52.431L341.426 51.6549C340.76 52.7564 339.904 53.6762 338.854 54.4189L339.72 55.6436ZM342.713 52.4245C343.512 51.0728 343.896 49.4974 343.896 47.7266H342.396C342.396 49.2761 342.062 50.5783 341.422 51.6614L342.713 52.4245ZM362.57 2.57031V1.82031H361.82V2.57031H362.57ZM399.094 2.57031H399.844V1.82031H399.094V2.57031ZM399.094 9.25244V10.0024H399.844V9.25244H399.094ZM384.609 9.25244V8.50244H383.859V9.25244H384.609ZM384.609 56.3594H383.859V57.1094H384.609V56.3594ZM399.094 56.3594H399.844V55.6094H399.094V56.3594ZM399.094 63V63.75H399.844V63H399.094ZM362.57 63H361.82V63.75H362.57V63ZM362.57 56.3594V55.6094H361.82V56.3594H362.57ZM376.723 56.3594V57.1094H377.473V56.3594H376.723ZM376.723 9.25244H377.473V8.50244H376.723V9.25244ZM362.57 9.25244H361.82V10.0024H362.57V9.25244ZM362.57 3.32031H399.094V1.82031H362.57V3.32031ZM398.344 2.57031V9.25244H399.844V2.57031H398.344ZM399.094 8.50244H384.609V10.0024H399.094V8.50244ZM383.859 9.25244V56.3594H385.359V9.25244H383.859ZM384.609 57.1094H399.094V55.6094H384.609V57.1094ZM398.344 56.3594V63H399.844V56.3594H398.344ZM399.094 62.25H362.57V63.75H399.094V62.25ZM363.32 63V56.3594H361.82V63H363.32ZM362.57 57.1094H376.723V55.6094H362.57V57.1094ZM377.473 56.3594V9.25244H375.973V56.3594H377.473ZM376.723 8.50244H362.57V10.0024H376.723V8.50244ZM363.32 9.25244V2.57031H361.82V9.25244H363.32ZM451.472 63V63.75H452.222V63H451.472ZM443.669 63L443.003 63.3456L443.213 63.75H443.669V63ZM420.219 17.8438L420.885 17.4981L419.469 17.8417L420.219 17.8438ZM420.095 63V63.75H420.843L420.845 63.0021L420.095 63ZM412.333 63H411.583V63.75H412.333V63ZM412.333 2.57031V1.82031H411.583V2.57031H412.333ZM420.136 2.57031L420.802 2.22416L420.591 1.82031H420.136V2.57031ZM443.586 47.6436L442.921 47.9897L444.336 47.6456L443.586 47.6436ZM443.71 2.57031V1.82031H442.963L442.96 2.56824L443.71 2.57031ZM451.472 2.57031H452.222V1.82031H451.472V2.57031ZM451.472 62.25H443.669V63.75H451.472V62.25ZM444.335 62.6544L420.885 17.4981L419.554 18.1894L443.003 63.3456L444.335 62.6544ZM419.469 17.8417L419.345 62.9979L420.845 63.0021L420.969 17.8458L419.469 17.8417ZM420.095 62.25H412.333V63.75H420.095V62.25ZM413.083 63V2.57031H411.583V63H413.083ZM412.333 3.32031H420.136V1.82031H412.333V3.32031ZM419.471 2.91646L442.921 47.9897L444.251 47.2974L420.802 2.22416L419.471 2.91646ZM444.336 47.6456L444.46 2.57238L442.96 2.56824L442.836 47.6415L444.336 47.6456ZM443.71 3.32031H451.472V1.82031H443.71V3.32031ZM450.722 2.57031V63H452.222V2.57031H450.722ZM503.767 55.0728L504.338 55.5591L504.518 55.3471L504.517 55.0685L503.767 55.0728ZM484.177 63.8301L484.168 64.58L484.171 64.5801L484.177 63.8301ZM477.287 62.7095L477.033 63.4152L477.044 63.4191L477.287 62.7095ZM471.684 59.6797L471.222 60.2701L471.228 60.2749L471.684 59.6797ZM464.172 49.4697L463.477 49.7515L463.482 49.7629L464.172 49.4697ZM462.263 43.0781L461.525 43.2147L461.527 43.2252L462.263 43.0781ZM461.599 36.313H460.849L460.849 36.3221L461.599 36.313ZM461.599 29.2988L460.849 29.2896V29.2988H461.599ZM462.18 22.6167L461.441 22.489L461.439 22.4964L462.18 22.6167ZM466.828 10.4976L467.452 10.9136L467.455 10.9091L466.828 10.4976ZM470.979 5.93213L471.445 6.51975L471.446 6.51875L470.979 5.93213ZM491.191 3.06836L490.929 3.77131L490.937 3.77392L491.191 3.06836ZM497.417 6.80371L496.908 7.35516L496.913 7.35945L497.417 6.80371ZM501.691 12.6558L501.013 12.9747L501.014 12.9779L501.691 12.6558ZM503.684 20.2925V21.0425H504.503L504.431 20.2266L503.684 20.2925ZM496.088 20.2925L495.35 20.4215L495.458 21.0425H496.088V20.2925ZM494.677 15.478L493.987 15.7719L493.989 15.7766L494.677 15.478ZM492.146 11.6597L491.608 12.1829L491.615 12.19L492.146 11.6597ZM488.452 9.21094L488.159 9.90176L488.171 9.90637L488.452 9.21094ZM478.574 9.25244L478.871 9.94119L478.882 9.93613L478.574 9.25244ZM472.265 15.4365L472.936 15.7719L472.939 15.7666L472.265 15.4365ZM470.563 19.8359L469.842 19.6299L470.563 19.8359ZM469.318 36.313L468.568 36.313L468.568 36.3266L469.318 36.313ZM469.692 41.0444L468.949 41.1452L468.95 41.1523L468.951 41.1594L469.692 41.0444ZM472.722 50.1753L472.067 50.5417L472.722 50.1753ZM475.502 53.8276L474.979 54.3649L474.986 54.3714L475.502 53.8276ZM479.321 56.3594L479.017 57.0454L479.029 57.0501L479.321 56.3594ZM484.218 57.314L484.238 56.5642L484.23 56.5641L484.218 57.314ZM487.497 57.1895L487.426 56.4428L487.424 56.443L487.497 57.1895ZM493.889 55.1973L494.269 55.8437L494.276 55.8396L494.283 55.8354L493.889 55.1973ZM496.254 52.9561L496.87 53.3849L497.003 53.1937L497.004 52.9606L496.254 52.9561ZM496.337 39.3843L497.087 39.3889L497.092 38.6343H496.337V39.3843ZM484.052 39.3843H483.302V40.1343H484.052V39.3843ZM484.052 32.9097V32.1597H483.302V32.9097H484.052ZM503.642 32.9097L504.392 32.9055L504.388 32.1597H503.642V32.9097ZM503.196 54.5864C500.717 57.4962 497.888 59.637 494.709 61.0261L495.31 62.4006C498.716 60.9122 501.725 58.6259 504.338 55.5591L503.196 54.5864ZM494.709 61.0261C491.521 62.419 488.016 63.1071 484.182 63.0801L484.171 64.5801C488.196 64.6084 491.912 63.8853 495.31 62.4006L494.709 61.0261ZM484.185 63.0801C481.765 63.0532 479.549 62.6905 477.53 61.9998L477.044 63.4191C479.231 64.1672 481.608 64.5516 484.168 64.58L484.185 63.0801ZM477.541 62.0038C475.535 61.2815 473.736 60.3077 472.14 59.0845L471.228 60.2749C472.953 61.5972 474.889 62.6433 477.033 63.4151L477.541 62.0038ZM472.147 59.0893C470.544 57.8337 469.141 56.3641 467.936 54.6783L466.716 55.5502C468.002 57.3507 469.504 58.9248 471.222 60.2701L472.147 59.0893ZM467.936 54.6783C466.724 52.9808 465.699 51.1473 464.862 49.1766L463.482 49.7629C464.36 51.8319 465.438 53.7614 466.716 55.5502L467.936 54.6783ZM464.867 49.1879C464.055 47.1849 463.432 45.0995 462.998 42.931L461.527 43.2252C461.979 45.4838 462.629 47.6595 463.477 49.7515L464.867 49.1879ZM463 42.9416C462.593 40.7422 462.376 38.5298 462.349 36.3038L460.849 36.3221C460.877 38.634 461.102 40.9316 461.525 43.2147L463 42.9416ZM462.349 36.313V29.2988H460.849V36.313H462.349ZM462.349 29.3081C462.376 27.1041 462.566 24.9138 462.92 22.737L461.439 22.4964C461.074 24.7466 460.877 27.0111 460.849 29.2896L462.349 29.3081ZM462.919 22.7444C463.298 20.5484 463.867 18.4502 464.624 16.449L463.221 15.9182C462.429 18.012 461.836 20.2026 461.441 22.489L462.919 22.7444ZM464.624 16.449C465.38 14.4521 466.323 12.6076 467.452 10.9136L466.204 10.0815C465.009 11.8739 464.015 13.8201 463.221 15.9182L464.624 16.449ZM467.455 10.9091C468.575 9.20284 469.905 7.74111 471.445 6.51975L470.512 5.34451C468.843 6.66872 467.406 8.25061 466.201 10.0861L467.455 10.9091ZM471.446 6.51875C473.012 5.27089 474.781 4.28599 476.756 3.56541L476.241 2.15627C474.121 2.92983 472.21 3.99246 470.511 5.34551L471.446 6.51875ZM476.756 3.56541C478.708 2.85297 480.916 2.49023 483.388 2.49023V0.990234C480.769 0.990234 478.384 1.37457 476.241 2.15627L476.756 3.56541ZM483.388 2.49023C486.131 2.49023 488.642 2.92028 490.929 3.77128L491.452 2.36544C488.98 1.44561 486.29 0.990234 483.388 0.990234V2.49023ZM490.937 3.77392C493.227 4.59948 495.215 5.79384 496.908 7.35514L497.925 6.25228C496.077 4.54861 493.914 3.25273 491.445 2.3628L490.937 3.77392ZM496.913 7.35945C498.606 8.89365 499.973 10.7623 501.013 12.9747L502.37 12.3368C501.252 9.95615 499.769 7.92341 497.92 6.24797L496.913 7.35945ZM501.014 12.9779C502.05 15.1566 502.694 17.6138 502.936 20.3584L504.431 20.2266C504.175 17.3267 503.491 14.6927 502.369 12.3336L501.014 12.9779ZM503.684 19.5425H496.088V21.0425H503.684V19.5425ZM496.827 20.1635C496.514 18.3681 496.028 16.7057 495.365 15.1795L493.989 15.7766C494.6 17.1833 495.054 18.7305 495.35 20.4215L496.827 20.1635ZM495.367 15.1841C494.697 13.6099 493.801 12.2547 492.676 11.1293L491.615 12.19C492.593 13.1676 493.385 14.3579 493.987 15.7719L495.367 15.1841ZM492.683 11.1365C491.582 10.0062 490.262 9.13327 488.733 8.51551L488.171 9.90637C489.519 10.4507 490.661 11.2103 491.608 12.1829L492.683 11.1365ZM488.744 8.52021C487.195 7.86472 485.418 7.54785 483.43 7.54785V9.04785C485.26 9.04785 486.831 9.33971 488.159 9.90166L488.744 8.52021ZM483.43 7.54785C481.516 7.54785 479.789 7.8815 478.265 8.56875L478.882 9.93613C480.18 9.35059 481.691 9.04785 483.43 9.04785V7.54785ZM478.277 8.56378C476.781 9.20878 475.47 10.0916 474.35 11.2123L475.41 12.273C476.392 11.2909 477.544 10.5136 478.871 9.9411L478.277 8.56378ZM474.35 11.2123C473.236 12.3254 472.318 13.6254 471.592 15.1064L472.939 15.7666C473.596 14.4254 474.42 13.2628 475.41 12.273L474.35 11.2123ZM471.594 15.1011C470.881 16.5277 470.297 18.0377 469.842 19.6299L471.285 20.042C471.715 18.5352 472.266 17.1122 472.936 15.7719L471.594 15.1011ZM469.842 19.6299C469.389 21.2175 469.063 22.8335 468.864 24.4775L470.353 24.6572C470.542 23.0916 470.853 21.5533 471.285 20.042L469.842 19.6299ZM468.864 24.4775C468.667 26.1098 468.568 27.6893 468.568 29.2158H470.068C470.068 27.754 470.163 26.2346 470.353 24.6572L468.864 24.4775ZM468.568 29.2158V36.313H470.068V29.2158H468.568ZM468.568 36.3266C468.597 37.8798 468.724 39.4862 468.949 41.1452L470.435 40.9437C470.217 39.3377 470.095 37.7897 470.068 36.2994L468.568 36.3266ZM468.951 41.1594C469.206 42.8032 469.588 44.4186 470.098 46.0054L471.527 45.5464C471.04 44.0342 470.676 42.4953 470.433 40.9294L468.951 41.1594ZM470.098 46.0054C470.611 47.6011 471.268 49.1136 472.067 50.5417L473.376 49.8088C472.626 48.4701 472.01 47.0496 471.527 45.5464L470.098 46.0054ZM472.067 50.5417C472.875 51.9848 473.846 53.2605 474.979 54.3648L476.026 53.2905C475.001 52.2919 474.117 51.1327 473.376 49.8088L472.067 50.5417ZM474.986 54.3714C476.157 55.4839 477.502 56.3752 479.017 57.0453L479.624 55.6735C478.262 55.0708 477.061 54.2742 476.019 53.2839L474.986 54.3714ZM479.029 57.0501C480.57 57.7022 482.3 58.035 484.207 58.0639L484.23 56.5641C482.484 56.5376 480.949 56.2339 479.613 55.6686L479.029 57.0501ZM484.199 58.0637C485.283 58.0923 486.407 58.0493 487.57 57.9359L487.424 56.443C486.318 56.5509 485.256 56.591 484.238 56.5642L484.199 58.0637ZM487.568 57.9361C488.779 57.8207 489.95 57.5897 491.079 57.2422L490.638 55.8086C489.61 56.1251 488.539 56.3368 487.426 56.4428L487.568 57.9361ZM491.079 57.2422C492.212 56.8936 493.276 56.4277 494.269 55.8437L493.508 54.5508C492.62 55.0736 491.664 55.4931 490.638 55.8086L491.079 57.2422ZM494.283 55.8354C495.311 55.2001 496.175 54.3816 496.87 53.3849L495.639 52.5272C495.061 53.3567 494.347 54.0324 493.495 54.5592L494.283 55.8354ZM497.004 52.9606L497.087 39.3889L495.587 39.3797L495.504 52.9515L497.004 52.9606ZM496.337 38.6343H484.052V40.1343H496.337V38.6343ZM484.802 39.3843V32.9097H483.302V39.3843H484.802ZM484.052 33.6597H503.642V32.1597H484.052V33.6597ZM502.892 32.9139L503.017 55.077L504.517 55.0685L504.392 32.9055L502.892 32.9139ZM553.613 63V63.75H554.363V63H553.613ZM546.35 63H545.6V63.75H546.35V63ZM546.35 35.0679H547.1V34.3179H546.35V35.0679ZM521.572 35.0679V34.3179H520.822V35.0679H521.572ZM521.572 63V63.75H522.322V63H521.572ZM514.35 63H513.6V63.75H514.35V63ZM514.35 2.57031V1.82031H513.6V2.57031H514.35ZM521.572 2.57031H522.322V1.82031H521.572V2.57031ZM521.572 28.5518H520.822V29.3018H521.572V28.5518ZM546.35 28.5518V29.3018H547.1V28.5518H546.35ZM546.35 2.57031V1.82031H545.6V2.57031H546.35ZM553.613 2.57031H554.363V1.82031H553.613V2.57031ZM553.613 62.25H546.35V63.75H553.613V62.25ZM547.1 63V35.0679H545.6V63H547.1ZM546.35 34.3179H521.572V35.8179H546.35V34.3179ZM520.822 35.0679V63H522.322V35.0679H520.822ZM521.572 62.25H514.35V63.75H521.572V62.25ZM515.1 63V2.57031H513.6V63H515.1ZM514.35 3.32031H521.572V1.82031H514.35V3.32031ZM520.822 2.57031V28.5518H522.322V2.57031H520.822ZM521.572 29.3018H546.35V27.8018H521.572V29.3018ZM547.1 28.5518V2.57031H545.6V28.5518H547.1ZM546.35 3.32031H553.613V1.82031H546.35V3.32031ZM552.863 2.57031V63H554.363V2.57031H552.863Z" fill="black"/>
</g>
<defs>
<filter id="filter0_d" x="0.388672" y="0.990234" width="557.974" height="71.5906" filterUnits="userSpaceOnUse" color-interpolation-filters="sRGB">
<feFlood flood-opacity="0" result="BackgroundImageFix"/>
<feColorMatrix in="SourceAlpha" type="matrix" values="0 0 0 0 0 0 0 0 0 0 0 0 0 0 0 0 0 0 127 0"/>
<feOffset dy="4"/>
<feGaussianBlur stdDeviation="2"/>
<feColorMatrix type="matrix" values="0 0 0 0 0 0 0 0 0 0 0 0 0 0 0 0 0 0 0.25 0"/>
<feBlend mode="normal" in2="BackgroundImageFix" result="effect1_dropShadow"/>
<feBlend mode="normal" in="SourceGraphic" in2="effect1_dropShadow" result="shape"/>
</filter>
</defs>
</svg>
